<svg xmlns="http://www.w3.org/2000/svg" xml:space="preserve" width="16" height="16" fill="currentColor" style="shape-rendering:geometricPrecision;text-rendering:geometricPrecision;image-rendering:optimizeQuality;fill-rule:evenodd;clip-rule:evenodd" viewBox="0 0 430 519.26"><defs><style>.fil0{fill:#2b2a29}</style></defs><g id="Layer_x0020_1"><path class="fil0" d="M240.46 501.64c-31.14 0-61.51-5.81-91.11-17.43-29.6-11.62-56.24-29.27-79.92-52.95-22.8-23.25-40.23-49.45-52.29-78.61C5.08 323.49-.95 292.68-.95 260.23c0-32.89 6.03-63.91 18.09-93.07C29.2 138 46.63 112.01 69.43 89.21c23.68-23.68 50.43-41.44 80.25-53.28 29.82-11.84 60.19-17.76 91.11-17.76 30.91 0 61.17 5.92 90.77 17.76 32.79 13.11 97.55 49.76 97.55 93.78 0 30.51-24.74 55.25-55.25 55.25-31.85 0-52.44-33.69-84.07-46.09-16.23-6.36-32.67-9.53-49.33-9.53-16.67 0-33 3.17-49.01 9.53-16 6.36-30.37 15.9-43.08 28.62-12.28 12.71-21.71 26.97-28.29 42.75-6.58 15.79-9.86 32.45-9.86 49.99s3.28 34.1 9.86 49.67c6.58 15.56 16.01 29.71 28.29 42.42 12.71 12.72 27.08 22.26 43.08 28.62 16.01 6.36 32.34 9.53 49.01 9.53 16.66 0 33.1-3.17 49.33-9.53 31.62-12.39 50.88-45.26 83.08-45.26 30.67 0 55.54 24.87 55.54 55.54 0 44.07-63.56 79.95-96.52 92.99-29.38 11.62-59.86 17.43-91.43 17.43z" style="stroke:#fefefe;stroke-width:33.32;stroke-miterlimit:22.9256"/><path class="fil0" d="M240.9 356.88c-12.21 0-24.12-2.27-35.72-6.83-11.61-4.56-22.05-11.48-31.34-20.76-8.94-9.11-15.77-19.39-20.5-30.82s-7.09-23.51-7.09-36.23c0-12.9 2.36-25.06 7.09-36.5 4.73-11.43 11.56-21.62 20.5-30.56 9.29-9.28 19.77-16.24 31.47-20.89 11.69-4.64 23.59-6.96 35.72-6.96 12.12 0 23.98 2.32 35.58 6.96 12.86 5.15 38.25 19.51 38.25 36.77 0 11.97-9.7 21.67-21.66 21.67-12.49 0-20.56-13.22-32.96-18.07-6.36-2.5-12.81-3.75-19.34-3.75-6.54 0-12.94 1.25-19.22 3.75-6.27 2.49-11.9 6.23-16.89 11.21-4.81 4.99-8.51 10.58-11.09 16.77-2.58 6.19-3.87 12.72-3.87 19.6 0 6.87 1.29 13.36 3.87 19.47 2.58 6.1 6.28 11.65 11.09 16.63 4.99 4.99 10.62 8.73 16.89 11.22 6.28 2.49 12.68 3.74 19.22 3.74 6.53 0 12.98-1.25 19.34-3.74 12.39-4.86 19.95-17.74 32.57-17.74 12.03 0 21.78 9.75 21.78 21.77 0 17.28-24.92 31.35-37.85 36.46-11.52 4.56-23.47 6.83-35.84 6.83z" style="stroke:#2b2a29;stroke-width:8.33;stroke-miterlimit:22.9256"/><rect x="220.78" y="-3.16" width="32.08" height="519.3" rx="97.02" ry="103.49" style="fill:#2b2a29"/></g></svg>