<svg xmlns="http://www.w3.org/2000/svg" xml:space="preserve" width="8" height="18" style="shape-rendering:geometricPrecision;text-rendering:geometricPrecision;image-rendering:optimizeQuality;fill-rule:evenodd;clip-rule:evenodd" viewBox="0 0 9 20.4"><defs><style>.fil0{fill:#2b2a29;fill-rule:nonzero}</style></defs><g id="Layer_x0020_1"><path class="fil0" d="M7.39 6.58c.55 0 1.08.11 1.55.31v2.04c-.4-.39-.95-.63-1.55-.63-.62 0-1.18.25-1.58.66-.41.4-.66.97-.66 1.59 0 .61.25 1.18.66 1.58.4.41.96.66 1.58.66.6 0 1.15-.24 1.55-.63v2.04c-.47.2-1 .31-1.55.31-1.09 0-2.09-.44-2.8-1.16a3.954 3.954 0 0 1-1.17-2.8c0-1.1.45-2.09 1.17-2.81.71-.72 1.71-1.16 2.8-1.16z"/><path class="fil0" d="M7.39 3.1c.53 0 1.05.05 1.55.16v2.38c-.49-.16-1.01-.24-1.55-.24-1.42 0-2.71.57-3.64 1.51-.93.93-1.51 2.21-1.51 3.64 0 1.42.58 2.7 1.51 3.64.93.93 2.22 1.5 3.64 1.5.54 0 1.06-.08 1.55-.24v2.38c-.5.11-1.02.16-1.55.16a7.42 7.42 0 0 1-5.27-2.18 7.457 7.457 0 0 1-2.18-5.26c0-2.06.84-3.92 2.18-5.27A7.42 7.42 0 0 1 7.39 3.1z"/><rect x="5.84" y=".01" width="1.3" height="20.4" rx="1.3" ry=".73" style="fill:#2b2a29"/></g></svg>