<?xml version="1.0" encoding="utf-8"?>
<!-- Generator: Adobe Illustrator 25.2.3, SVG Export Plug-In . SVG Version: 6.00 Build 0)  -->
<svg version="1.1" xmlns="http://www.w3.org/2000/svg" xmlns:xlink="http://www.w3.org/1999/xlink" x="0px" y="0px"
	 viewBox="0 0 283.46 283.46" style="enable-background:new 0 0 283.46 283.46;" xml:space="preserve">
<style type="text/css">
	.st0{fill-rule:evenodd;clip-rule:evenodd;fill:url(#SVGID_1_);}
	.st1{fill-rule:evenodd;clip-rule:evenodd;fill:url(#SVGID_2_);}
	.st2{fill-rule:evenodd;clip-rule:evenodd;fill:url(#SVGID_3_);}
	.st3{fill-rule:evenodd;clip-rule:evenodd;fill:#659933;}
	.st4{fill-rule:evenodd;clip-rule:evenodd;fill:#FFFFFF;}
	.st5{display:none;fill-rule:evenodd;clip-rule:evenodd;fill:none;stroke:#000000;stroke-width:9;stroke-miterlimit:10;}
	.st6{display:none;fill-rule:evenodd;clip-rule:evenodd;fill:#FFFFFF;}
	.st7{fill:#104653;}
	.st8{fill:#FFFFFF;}
	.st9{fill-rule:evenodd;clip-rule:evenodd;fill:#75B951;}
	.st10{fill:#75B951;}
	.st11{fill:#0F6A30;}
	.st12{fill:#0F5428;}
	.st13{fill-rule:evenodd;clip-rule:evenodd;fill:#0F5428;}
	.st14{fill:none;stroke:#139A39;stroke-width:0.216;stroke-miterlimit:22.9256;}
	.st15{fill-rule:evenodd;clip-rule:evenodd;fill:#CFD185;}
	.st16{fill-rule:evenodd;clip-rule:evenodd;fill:#5C8C5A;}
	.st17{display:none;}
	.st18{fill:#CFD185;}
	.st19{fill:#659933;}
	.st20{fill-rule:evenodd;clip-rule:evenodd;fill:#104653;}
	.st21{fill:none;stroke:#FDFDFA;stroke-width:2;stroke-miterlimit:10;}
	.st22{clip-path:url(#SVGID_5_);}
	.st23{display:inline;fill-rule:evenodd;clip-rule:evenodd;fill:#104653;}
	.st24{clip-path:url(#SVGID_7_);}
	.st25{display:none;fill-rule:evenodd;clip-rule:evenodd;fill:#3CAA3A;}
	.st26{fill:#0099CD;}
	.st27{fill:#575756;}
	.st28{fill:#666666;}
	.st29{fill:#262626;}
	.st30{display:inline;}
	.st31{fill:none;stroke:#020203;stroke-width:3;stroke-miterlimit:10;}
	.st32{fill:none;stroke:#020203;stroke-miterlimit:10;}
	.st33{fill:none;stroke:#659933;stroke-width:3;stroke-miterlimit:10;}
	.st34{fill:none;stroke:#104653;stroke-width:3;stroke-miterlimit:10;}
	.st35{fill:#5C8C5A;}
	.st36{fill-rule:evenodd;clip-rule:evenodd;fill:#3CAA3A;}
	.st37{fill:#3CAA3A;}
</style>
<g id="Vrstva_3">
</g>
<g id="Vrstva_4">
	<g>
		<g>
			<path class="st19" d="M49.06,57.11c-2.81,6.03-8.91,8.16-13.28,8.16c-8.93,0-16.19-8.35-16.19-18.61
				c0-8.89,5.6-18.33,15.98-18.33c2.77,0,9.58,0.76,12.87,7.81l0.42,0.91l6.41-4.15l-0.34-0.69c-3.4-7.04-10.54-11.24-19.09-11.24
				c-15.21,0-24.31,12.92-24.31,25.42c0,12.68,9.63,26.25,23.96,26.25c7.59,0,17.02-4.11,20.36-11.97l0.31-0.73l-6.71-3.67
				L49.06,57.11z"/>
			<polygon class="st19" points="67.41,23.47 59.98,23.47 59.98,70.01 92.39,70.01 92.39,63.22 67.41,63.22 			"/>
			<rect x="97.21" y="23.53" class="st19" width="7.42" height="46.48"/>
			<polygon class="st19" points="136.69,51.64 120.99,23.47 113.61,23.47 113.61,70.01 121.03,70.01 121.03,37.83 134.6,61.93 
				138.84,61.93 152.35,37.84 152.35,70.01 159.77,70.01 159.77,23.47 152.46,23.47 			"/>
			<path class="st19" d="M182.79,23.47l-19.14,46.54h7.95l5.24-13.12h17.62l5.3,13.12h7.94l-19.07-46.54H182.79z M192.51,50.73
				h-13.84l7.03-17.45L192.51,50.73z"/>
			<polygon class="st19" points="202.88,30.26 218.34,30.26 218.34,70.01 225.76,70.01 225.76,30.26 241.22,30.26 241.22,23.47 
				202.88,23.47 			"/>
			<polygon class="st19" points="253.39,63.22 253.39,49.5 274.4,49.5 274.4,43.03 253.39,43.03 253.39,30.26 277.55,30.26 
				277.55,23.47 245.97,23.47 245.97,70.01 278.12,70.01 278.12,63.22 			"/>
		</g>
		<g>
			<path class="st26" d="M80.82,230.71c0-7.34-5.8-15.19-14.44-15.19H46.33v46.54h7.42v-16.09h10.51l10.22,16.09h8.5l-11.09-17.53
				C77.2,242.59,80.82,237.09,80.82,230.71z M73.33,230.71c0,4.16-2.58,8.46-6.89,8.46H53.75v-16.87h12.31
				C70,222.31,73.33,226.15,73.33,230.71z"/>
			<path class="st26" d="M119.76,239.04c0,6.15-1.63,16.48-12.57,16.48c-10.88,0-12.51-10.32-12.51-16.48v-23.52h-7.42v23.52
				c0,14.61,7.47,23.33,19.99,23.33c12.48,0,19.93-8.72,19.93-23.33v-23.52h-7.42V239.04z"/>
			<polygon class="st26" points="142.89,215.51 135.47,215.51 135.47,262.05 167.88,262.05 167.88,255.26 142.89,255.26 			"/>
			<polygon class="st26" points="180.11,241.55 201.12,241.55 201.12,235.07 180.11,235.07 180.11,222.31 204.28,222.31 
				204.28,215.51 172.69,215.51 172.69,262.05 204.85,262.05 204.85,255.26 180.11,255.26 			"/>
			<path class="st26" d="M227.51,235.47c-8.48-1.92-11.12-3.14-11.12-7.04c0-4.28,3.1-6.45,9.23-6.45c5.24,0,9.64,2.27,11.52,4.38
				l0.8,0.9l3.62-6.3l-0.57-0.47c-4.25-3.47-9.53-5.31-15.25-5.31c-10.3,0-16.96,5.54-16.96,14.12c0,7.67,5.09,10.36,14.48,12.64
				c8.34,2.02,12.27,3.45,12.27,7.73c0,4.91-5.01,5.94-9.22,5.94c-6.27,0-12.3-2.88-15.01-5.72l-0.81-0.85l-3.66,6.46l0.57,0.47
				c5.24,4.25,11.73,6.5,18.78,6.5c10.74,0,17.15-5,17.15-13.36C243.33,240.66,237.53,237.71,227.51,235.47z"/>
		</g>
		<path class="st19" d="M275.18,149.71l-28.91-20.79l-15.87,26.94l7.92-1.09c-4.9,11.44-20.22,19.63-33.11,19.63
			c-15.31,0-35.76-22.15-35.76-22.15l-7.54-7.95l-21.68-22.22c-1.49-1.52-2.96-3.05-4.42-4.57c-16.7-17.32-33.97-35.23-63.3-35.23
			c-32.18,0-56.25,21.97-60.05,53.36l24.99-17.59l9.58,15.46c3.93-11.48,14.11-19.05,27.04-19.05c16.87,0,40.56,25.63,40.56,25.63
			l3.91,4.21l21.68,22.49c1.62,1.67,3.23,3.35,4.84,5.04c16.33,17.08,33.21,34.75,59.76,34.75c33.39,0,60.69-23.96,59.9-55.42
			L275.18,149.71z"/>
		<path class="st26" d="M133.73,166.71c-0.02,0.02-0.02,0.04-0.03,0.05c-0.97,1-2.53,1.02-3.51,0.07c-0.99-0.95-1.03-2.53-0.06-3.53
			c0.06-0.06,0.13-0.08,0.2-0.13l-3.55-3.68c-0.08,0.12-0.12,0.25-0.22,0.35c-0.97,1-2.54,1.01-3.53,0.06
			c-0.99-0.95-1.03-2.53-0.06-3.53c0.14-0.15,0.32-0.23,0.48-0.33l-3.64-3.78c-0.11,0.23-0.23,0.46-0.42,0.65
			c-0.97,1-2.54,1.01-3.53,0.06c-0.99-0.95-1.03-2.53-0.06-3.53c0.23-0.23,0.49-0.4,0.77-0.53l-2.14-2.22l-7.25,7.65
			c0,0-19.67,21.29-34.39,21.29c-12.62,0-25.54-8.16-29.75-19.47l7.07,0.97l-15.87-26.94L5.34,150.99l9.4,1.29
			c2.66,30.85,25.98,54.29,58.44,54.29c25.53,0,41.76-16.98,57.45-33.41c1.55-1.62,3.1-3.24,4.66-4.85L133.73,166.71z M98.9,172.46
			c-0.54,0.56-1.38,0.57-1.93,0.03c-0.56-0.54-0.57-1.38-0.03-1.93c0.54-0.56,1.38-0.57,1.94-0.03
			C99.43,171.06,99.44,171.91,98.9,172.46z M106.06,179.39c-0.54,0.56-1.38,0.57-1.93,0.03c-0.56-0.54-0.57-1.38-0.03-1.94
			c0.54-0.56,1.38-0.57,1.94-0.03C106.59,177.99,106.6,178.84,106.06,179.39z M107.61,171.05c-0.63,0.65-1.69,0.67-2.34,0.04
			c-0.65-0.63-0.67-1.69-0.04-2.34c0.63-0.65,1.69-0.67,2.34-0.04C108.22,169.34,108.24,170.4,107.61,171.05z M109.15,162.7
			c-0.74,0.76-1.97,0.77-2.73,0.03c-0.76-0.74-0.78-1.95-0.04-2.72c0.74-0.76,1.97-0.8,2.73-0.06
			C109.86,160.69,109.88,161.94,109.15,162.7z M114.77,177.98c-0.63,0.65-1.69,0.67-2.34,0.04c-0.65-0.63-0.67-1.69-0.04-2.34
			c0.63-0.65,1.69-0.67,2.34-0.04C115.38,176.27,115.4,177.33,114.77,177.98z M116.29,169.62c-0.74,0.76-1.95,0.78-2.72,0.04
			c-0.76-0.74-0.8-1.97-0.06-2.73c0.74-0.76,1.99-0.78,2.75-0.04C117.03,167.63,117.03,168.86,116.29,169.62z M117.84,161.27
			c-0.85,0.87-2.25,0.9-3.12,0.05c-0.87-0.84-0.9-2.25-0.05-3.12c0.86-0.89,2.25-0.9,3.12-0.05
			C118.66,158.99,118.69,160.38,117.84,161.27z M123.47,176.57c-0.74,0.76-1.97,0.77-2.73,0.03c-0.76-0.74-0.8-1.97-0.06-2.73
			c0.74-0.76,1.99-0.78,2.75-0.04C124.19,174.56,124.21,175.81,123.47,176.57z M125,168.21c-0.85,0.87-2.25,0.89-3.12,0.05
			c-0.87-0.84-0.9-2.25-0.05-3.12c0.86-0.89,2.25-0.9,3.12-0.05C125.82,165.93,125.86,167.32,125,168.21z"/>
		<path class="st26" d="M210.18,82.28c-28.23,0-44.86,17.24-60.94,33.92c-1.41,1.46-2.83,2.93-4.26,4.4l1.47,1.51
			c0.97-0.79,2.36-0.78,3.27,0.1c0.95,0.91,1,2.4,0.14,3.4l3.5,3.59c0.97-1,2.54-1,3.52-0.05c0.99,0.95,1.03,2.53,0.06,3.53
			c-0.03,0.03-0.08,0.05-0.11,0.08l3.54,3.62c0.06-0.08,0.08-0.17,0.15-0.24c0.97-1,2.54-1.01,3.53-0.06
			c0.99,0.95,1.03,2.53,0.06,3.53c-0.1,0.11-0.24,0.16-0.36,0.24l2.1,2.16l3.77-4.05c0,0,22.81-24.67,39.05-24.67
			c12.52,0,22.36,7.36,26.1,18.52l9.33-15.06l23.86,16.8C264.27,103.36,241.11,82.28,210.18,82.28z M158.09,123.9
			c-0.86,0.89-2.25,0.9-3.12,0.05c-0.87-0.84-0.91-2.23-0.05-3.12c0.85-0.87,2.25-0.89,3.12-0.05
			C158.91,121.62,158.94,123.02,158.09,123.9z M159.24,115.17c-0.74,0.76-1.99,0.78-2.75,0.04c-0.76-0.74-0.78-1.99-0.05-2.75
			c0.74-0.76,1.97-0.77,2.73-0.03C159.94,113.17,159.97,114.4,159.24,115.17z M165.25,130.83c-0.86,0.89-2.25,0.9-3.12,0.05
			c-0.87-0.84-0.91-2.23-0.05-3.12c0.85-0.87,2.25-0.9,3.12-0.05C166.07,128.55,166.1,129.95,165.25,130.83z M166.4,122.1
			c-0.74,0.76-1.99,0.78-2.75,0.04c-0.76-0.74-0.76-1.97-0.03-2.73c0.74-0.76,1.95-0.78,2.72-0.05
			C167.1,120.1,167.13,121.33,166.4,122.1z M167.53,113.35c-0.63,0.65-1.69,0.67-2.34,0.04c-0.65-0.63-0.67-1.69-0.04-2.34
			c0.63-0.65,1.69-0.67,2.34-0.04C168.14,111.64,168.16,112.7,167.53,113.35z M173.54,129.01c-0.74,0.76-1.97,0.8-2.73,0.06
			c-0.76-0.74-0.78-1.99-0.05-2.75c0.74-0.76,1.97-0.77,2.73-0.03C174.26,127.03,174.28,128.25,173.54,129.01z M174.69,120.28
			c-0.63,0.65-1.69,0.67-2.34,0.04c-0.65-0.63-0.67-1.69-0.04-2.34c0.63-0.65,1.69-0.67,2.34-0.04
			C175.3,118.57,175.32,119.63,174.69,120.28z M175.82,111.54c-0.54,0.56-1.38,0.57-1.94,0.03c-0.55-0.54-0.57-1.38-0.03-1.93
			c0.54-0.56,1.38-0.57,1.93-0.03C176.34,110.14,176.36,110.98,175.82,111.54z M182.98,118.47c-0.54,0.56-1.38,0.57-1.94,0.03
			c-0.56-0.54-0.57-1.38-0.03-1.93c0.54-0.56,1.38-0.57,1.94-0.03C183.5,117.07,183.52,117.91,182.98,118.47z"/>
	</g>
</g>
<g id="Vrstva_2">
</g>
<g id="Ikony_pedagogů">
</g>
</svg>
